<?xml version="1.0" encoding="UTF-8"?>
<svg id="Layer_1" xmlns="http://www.w3.org/2000/svg" xmlns:xlink="http://www.w3.org/1999/xlink" viewBox="0 0 512 512">
  <defs>
    <style>
      .cls-1 {
        fill: none;
      }

      .cls-2 {
        fill: #7a3118;
      }

      .cls-3 {
        fill: #fec00f;
      }

      .cls-4 {
        fill: #bc603d;
      }

      .cls-5 {
        fill: #fff4ec;
      }

      .cls-6 {
        fill: #fcd0b8;
      }

      .cls-7 {
        clip-path: url(#clippath-1);
      }

      .cls-8 {
        clip-path: url(#clippath-2);
      }

      .cls-9 {
        fill: #febf10;
      }

      .cls-10 {
        clip-path: url(#clippath);
      }

      .cls-11 {
        fill: #ec6924;
      }

      .cls-12 {
        fill: #d67600;
      }
    </style>
    <clipPath id="clippath">
      <rect class="cls-1" width="512" height="512" rx="113.52" ry="113.52"/>
    </clipPath>
    <clipPath id="clippath-1">
      <rect class="cls-1" width="512" height="512" rx="113.52" ry="113.52"/>
    </clipPath>
    <clipPath id="clippath-2">
      <path class="cls-3" d="M421.31,43.84c-13.27-5.33-23.27-16.97-25.88-31.03-3.83-20.65-88.72-39.05-139.43-33.94C205.29-26.25,120.4-7.84,116.57,12.81c-2.61,14.06-12.61,25.7-25.88,31.03C-64.34,106.07-37.15,215.61-182.72,238.77c148.72,142.14,250.56,216.04,438.72,219.41,188.16-3.38,290-77.27,438.72-219.41-145.57-23.16-118.38-132.7-273.42-194.93Z"/>
    </clipPath>
  </defs>
  <rect class="cls-9" width="512" height="512" rx="113.52" ry="113.52"/>
  <g class="cls-10">
    <path class="cls-5" d="M395.86,476.08c0,83.31-62.62,124.64-139.86,124.64s-139.86-41.33-139.86-124.64,18.53-182.56,139.86-182.56,139.86,99.26,139.86,182.56Z"/>
  </g>
  <g class="cls-7">
    <g>
      <g>
        <g>
          <g>
            <path class="cls-3" d="M421.31,43.84c-13.27-5.33-23.27-16.97-25.88-31.03-3.83-20.65-88.72-39.05-139.43-33.94C205.29-26.25,120.4-7.84,116.57,12.81c-2.61,14.06-12.61,25.7-25.88,31.03C-64.34,106.07-37.15,215.61-182.72,238.77c148.72,142.14,250.56,216.04,438.72,219.41,188.16-3.38,290-77.27,438.72-219.41-145.57-23.16-118.38-132.7-273.42-194.93Z"/>
            <g class="cls-8">
              <path class="cls-5" d="M394.91,457.69c0,77.81-62.19,116.42-138.91,116.42s-138.91-38.61-138.91-116.42,18.4-170.53,138.91-170.53,138.91,92.71,138.91,170.53Z"/>
            </g>
          </g>
          <path class="cls-3" d="M345.49-7.28c-29.69-16.46-47.06-40.02-57.49-67.57,1.58,14.29,3.46,27.52,5.85,38.95l-12.91-19.28,8.99,35.31-21.96-6.37c-4.24-10.2-7.3-23.43-9.22-39.54-5.07,13-6.48,26.61-4.95,40.71l-15.71,3.74c-3.46-16.11,1.97-35.96,11.58-57.56-19.44,28.2-48.12,52.02-85.73,71.61h76.37l22.98,26.73L316.74-1.74l-3.72-5.55h32.46Z"/>
        </g>
        <path class="cls-2" d="M256,324.24c12.09,47.82-32.81,79.05-74.26,54.42-11.12-6.87-19.85-18.87-20.71-31.98,4.76,11.84,13.8,20.5,24.3,25.59,20.47,10.11,48.42,7.18,61.12-13.3,6.56-10.19,8.58-22.58,9.55-34.74h0Z"/>
        <path class="cls-2" d="M256.29,324.24c.97,12.15,2.99,24.55,9.55,34.74,12.7,20.48,40.64,23.4,61.12,13.3,10.5-5.09,19.54-13.76,24.3-25.59-.86,13.12-9.59,25.11-20.71,31.98-41.48,24.64-86.34-6.64-74.26-54.42h0Z"/>
        <path class="cls-11" d="M256,310.4c-14.63.23-23.86,3.33-30.26,7.94,16.14,2.4,26.22,10.09,30.26,23.07,4.03-12.99,14.12-20.68,30.26-23.07-6.4-4.61-15.63-7.71-30.26-7.94Z"/>
        <g>
          <circle class="cls-6" cx="192.97" cy="342.72" r="2.33"/>
          <circle class="cls-6" cx="215.84" cy="333.84" r="2.33"/>
          <circle class="cls-6" cx="235.36" cy="345.4" r="2.33"/>
          <circle class="cls-6" cx="216.37" cy="354.22" r="2.33"/>
          <circle class="cls-6" cx="319.06" cy="342.72" r="2.33"/>
          <circle class="cls-6" cx="296.19" cy="333.84" r="2.33"/>
          <circle class="cls-6" cx="276.67" cy="345.4" r="2.33"/>
          <circle class="cls-6" cx="295.66" cy="354.22" r="2.33"/>
        </g>
      </g>
      <g>
        <path class="cls-5" d="M211.15,224.97c-6.98,42.67-43.56,71.42-98.97,71.42s-89.79-35.05-90.25-78.29c-.34-31.54,18.98-57.01,33.45-64.54l148.83,26.27s11.6,16.69,6.94,45.14Z"/>
        <ellipse class="cls-2" cx="123.28" cy="229.8" rx="45.83" ry="56.28"/>
        <circle class="cls-5" cx="87.31" cy="213.42" r="34.72"/>
      </g>
      <g>
        <path class="cls-5" d="M301.29,224.97c6.98,42.67,43.56,71.42,98.97,71.42s89.79-35.05,90.25-78.29c.34-31.54-18.98-57.01-33.45-64.54l-148.83,26.27s-11.6,16.69-6.94,45.14Z"/>
        <ellipse class="cls-2" cx="389.16" cy="229.8" rx="45.83" ry="56.28"/>
        <circle class="cls-5" cx="357.12" cy="213.42" r="34.72"/>
      </g>
      <ellipse class="cls-12" cx="160.86" cy="106.1" rx="17.65" ry="28.74" transform="translate(-1.49 209.9) rotate(-66)"/>
      <ellipse class="cls-12" cx="351.14" cy="106.1" rx="28.74" ry="17.65" transform="translate(-12.8 151.99) rotate(-24)"/>
      <g>
        <path class="cls-4" d="M37.62,398.15c23.72-20.91,54.14-33,84.79-39.7,15.4-3.41,31.04-6.14,46.83-6.67,7.88-.25,15.75-.28,23.62.12,7.86.37,15.7,1.04,23.5,2.22v.73c-11.74,1.36-23.35,2.13-35.05,3.19-18.04,1.75-39.94,3.09-57.76,6.14-22.84,4.08-45.42,10.73-65.88,21.85-6.81,3.73-13.38,7.94-19.59,12.67l-.46-.57h0Z"/>
        <path class="cls-4" d="M11.15,337.43c16.65-5.47,33.96-9.77,51.34-12.09,8.64-1.18,17.75-1.74,26.46-2.12,0,0,13.3.02,13.3.02l13.29.67c4.62.5,15.43,1.25,19.87,2.01,3.76.58,9.5,1.2,13.18,1.98,17.43,3.39,34.27,9.27,50.4,16.65,5.68,2.89,12.11,6.13,17.56,9.39,0,0-.37.9-.37.9-8.35-1.71-17.2-4.49-25.51-6.43-12.58-3.28-25.15-6.4-37.83-9.19-4.2-.98-8.37-2.09-12.6-2.89-3.77-.77-8.93-2.08-12.67-2.65-18.69-3.34-39.13-4.67-58.1-3.82-10.77.4-21.73,1.56-32.39,3.3-8.59,1.45-17.14,3.22-25.67,5.21l-.26-.94h0Z"/>
        <path class="cls-4" d="M473.91,398.72c-24.79-18.95-55.03-29.11-85.46-34.52-17.81-3.05-39.75-4.4-57.76-6.15-11.69-1.06-23.31-1.83-35.03-3.19v-.73c7.79-1.19,15.63-1.86,23.49-2.22,7.87-.4,15.74-.37,23.62-.12,15.78.53,31.43,3.26,46.83,6.67,15.42,3.38,30.61,8.05,45.02,14.52,14.36,6.52,28.01,14.76,39.77,25.18l-.46.57h0Z"/>
        <path class="cls-4" d="M500.59,338.37c-16.96-3.99-34.18-7.12-51.56-8.18-16.69-1.21-35.14-.46-51.8,1.49-12.78,1.69-25.55,4.49-38.06,7.54-12.68,2.79-25.25,5.91-37.83,9.19-8.3,1.94-17.14,4.72-25.51,6.43,0,0-.37-.9-.37-.9,5.44-3.25,11.85-6.5,17.56-9.39,16.12-7.38,32.97-13.26,50.4-16.65,3.67-.76,9.42-1.42,13.18-1.98,4.38-.72,15.3-1.55,19.87-2.01,21.75-1.51,44.74-.64,66.12,3.56,10.66,1.95,21.63,4.78,31.99,7.98,0,0,6.27,1.99,6.27,1.99l-.26.94h0Z"/>
      </g>
    </g>
  </g>
</svg>