<?xml version="1.0" encoding="UTF-8"?>
<svg id="Layer_1" xmlns="http://www.w3.org/2000/svg" xmlns:xlink="http://www.w3.org/1999/xlink" viewBox="0 0 455.59 521.12">
  <defs>
    <style>
      .cls-1 {
        fill: #7a3118;
      }

      .cls-2 {
        fill: #fec00f;
      }

      .cls-3 {
        fill: #bc603d;
      }

      .cls-4 {
        fill: url(#linear-gradient-8);
      }

      .cls-5 {
        fill: url(#linear-gradient-7);
      }

      .cls-6 {
        fill: url(#linear-gradient-5);
      }

      .cls-7 {
        fill: url(#linear-gradient-6);
      }

      .cls-8 {
        fill: url(#linear-gradient-4);
      }

      .cls-9 {
        fill: url(#linear-gradient-3);
      }

      .cls-10 {
        fill: url(#linear-gradient-2);
      }

      .cls-11 {
        fill: #fff4ec;
      }

      .cls-12 {
        fill: url(#linear-gradient);
      }

      .cls-13 {
        fill: #f2996a;
      }

      .cls-14 {
        fill: #b9642a;
      }

      .cls-15 {
        fill: #fcd0b8;
      }

      .cls-16 {
        clip-path: url(#clippath-1);
      }

      .cls-17 {
        clip-path: url(#clippath-3);
      }

      .cls-18 {
        clip-path: url(#clippath-4);
      }

      .cls-19 {
        clip-path: url(#clippath-2);
      }

      .cls-20 {
        clip-path: url(#clippath);
      }

      .cls-21 {
        fill: #ec6924;
      }

      .cls-22 {
        fill: #d67600;
      }
    </style>
    <linearGradient id="linear-gradient" x1="129.12" y1="401.52" x2="170.61" y2="491.1" gradientUnits="userSpaceOnUse">
      <stop offset="0" stop-color="#febf10"/>
      <stop offset="1" stop-color="#eb9b22"/>
    </linearGradient>
    <linearGradient id="linear-gradient-2" x1="374.1" y1="487.88" x2="374.1" y2="161.08" gradientUnits="userSpaceOnUse">
      <stop offset="0" stop-color="#d07f1f"/>
      <stop offset="1" stop-color="#febf10"/>
    </linearGradient>
    <linearGradient id="linear-gradient-3" x1="244.41" y1="487.88" x2="244.41" y2="161.08" xlink:href="#linear-gradient-2"/>
    <linearGradient id="linear-gradient-4" x1="247.4" y1="517.03" x2="247.4" y2="290.33" gradientUnits="userSpaceOnUse">
      <stop offset="0" stop-color="#eb9b22"/>
      <stop offset=".24" stop-color="#eea01f"/>
      <stop offset=".56" stop-color="#f6b017"/>
      <stop offset=".76" stop-color="#febf10"/>
    </linearGradient>
    <clipPath id="clippath">
      <path class="cls-8" d="M253.1,295.66c-63.88,83.36-45.97,126.31-25,205.46-11.28,5.45-6.22,15.75-2.9,17.97,0,0,35.32.12,38.9,0,8.11-2.12,6.96-12.83,5.32-17.42-.97-5.48,24.82-68.7,13.98-137.73l-30.31-68.27Z"/>
    </clipPath>
    <linearGradient id="linear-gradient-5" x1="1206.38" y1="407.4" x2="1283.73" y2="407.4" gradientTransform="translate(1616.18) rotate(-180) scale(1 -1)" gradientUnits="userSpaceOnUse">
      <stop offset="0" stop-color="#eb9b22"/>
      <stop offset=".48" stop-color="#febf10"/>
    </linearGradient>
    <clipPath id="clippath-1">
      <path class="cls-6" d="M365.42,295.66c63.88,83.36,45.97,126.31,25,205.46,11.28,5.45,6.22,15.75,2.9,17.97,0,0-35.32.12-38.9,0-8.11-2.12-6.96-12.83-5.32-17.42.97-5.48-24.82-68.7-13.98-137.73l30.31-68.27Z"/>
    </clipPath>
    <linearGradient id="linear-gradient-6" x1="263" y1="243.73" x2="263" y2="443.88" gradientUnits="userSpaceOnUse">
      <stop offset="0" stop-color="#f2ae16"/>
      <stop offset=".48" stop-color="#febf10"/>
    </linearGradient>
    <clipPath id="clippath-2">
      <path class="cls-7" d="M233.71,330.17c-4.03,33.2-5.7,120.58,14.12,170.95-11.28,5.45-6.22,15.75-2.9,17.97,0,0,35.32.12,38.9,0,8.11-2.12,6.96-12.83,5.32-17.42-.97-5.48,10.99-74.05,2.82-139.19-13.09-104.34-44.43-119.3-44.43-119.3-4.55,10.17-5.62,19.42-13.82,86.99Z"/>
    </clipPath>
    <clipPath id="clippath-3">
      <path class="cls-2" d="M362.14,43.82c-4.24-1.7-7.45-5.43-8.28-9.93-1.22-6.61-28.38-12.49-44.6-10.86-16.22-1.63-43.38,4.25-44.6,10.86-.83,4.5-4.04,8.22-8.28,9.93-49.6,19.91-40.9,54.95-87.47,62.36,47.58,45.47,80.16,69.11,140.35,70.19,60.19-1.08,92.77-24.72,140.35-70.19-46.57-7.41-37.87-42.45-87.47-62.36Z"/>
    </clipPath>
    <linearGradient id="linear-gradient-7" x1="-536.96" x2="-536.96" y2="443.88" gradientTransform="translate(-181.45) rotate(-180) scale(1 -1)" xlink:href="#linear-gradient-6"/>
    <linearGradient id="linear-gradient-8" x1="-536.96" x2="-536.96" y2="443.88" gradientTransform="translate(-181.45) rotate(-180) scale(1 -1)" xlink:href="#linear-gradient-6"/>
    <clipPath id="clippath-4">
      <path class="cls-4" d="M384.8,330.17c4.03,33.2,5.7,120.58-14.12,170.95,11.28,5.45,6.22,15.75,2.9,17.97,0,0-35.32.12-38.9,0-8.11-2.12-6.96-12.83-5.32-17.42.97-5.48-10.99-74.05-2.82-139.19,13.09-104.34,44.43-119.3,44.43-119.3,4.55,10.17,5.62,19.42,13.82,86.99Z"/>
    </clipPath>
  </defs>
  <path class="cls-12" d="M228.52,431.24c-15.91-1.19-47.55-4.41-80.65-12.71-74.66-18.7-99.93-47.94-107.98-69.17-5.87-15.47-12.55-45.04,8.66-69.24,13.48-15.39,34.55-23.4,51.23-19.48,23.64,5.55,38.85,17.23,45.22,34.71,1.97,5.4,3.08,11.25,3.3,17.4.29,8.05,5.98,14.67,13.86,16.14l.14.03c5.09.92,10.26-.5,14.17-3.89,3.9-3.38,6.04-8.28,5.85-13.44-.33-9.28-1.97-18.23-4.87-26.61-7.06-20.39-24.92-46.92-69.88-57.49-28.86-6.79-62.87,5.35-84.64,30.19-24.06,27.46-29.48,65.28-14.88,103.76,13.75,36.25,49.19,64.03,105.34,82.59,44.17,14.6,89.56,19.56,112.67,21.21.42.03.83.04,1.25.04,4.21,0,8.2-1.53,11.36-4.38,3.47-3.13,5.46-7.44,5.61-12.11v-.07c.28-9.13-6.64-16.81-15.76-17.49Z"/>
  <g>
    <path class="cls-10" d="M380.15,154.5l-70.9,14.2v348.6c41.94-.12,53.86-10.73,81.08-24.86,119.39-107.54-19.95-251.12-10.18-337.93Z"/>
    <path class="cls-9" d="M238.36,154.5c9.77,86.82-129.58,230.39-10.18,337.93,27.22,14.13,39.13,24.74,81.08,24.86V168.69s-70.9-14.2-70.9-14.2Z"/>
  </g>
  <path class="cls-11" d="M354.96,164.02l-30.16,1.56-15.54,3.11-15.54-3.11-30.16-1.56c9.15,23.26-31.9,83.25-27.59,189.91,1.53,37.96,47.93,129.01,51.99,162.16.62.08,1.25.15,1.89.22.27.03.53.06.81.09.6.06,1.2.12,1.81.18.34.03.69.06,1.03.09.58.05,1.17.1,1.76.14.87.06,1.76.12,2.66.17.44.02.89.04,1.34.07.63.03,1.25.06,1.9.09.43.02.88.03,1.32.05.72.02,1.46.04,2.2.06.37,0,.75.02,1.13.02,1.14.02,2.29.03,3.47.04,1.18,0,2.33-.02,3.47-.04.38,0,.75-.02,1.13-.02.74-.02,1.47-.04,2.2-.06.44-.01.88-.03,1.32-.05.64-.03,1.27-.06,1.9-.09.45-.02.9-.04,1.34-.07.9-.05,1.79-.11,2.66-.17.6-.04,1.18-.09,1.76-.14.35-.03.69-.06,1.03-.09.61-.06,1.21-.11,1.81-.18.27-.03.54-.06.81-.09.64-.07,1.27-.14,1.89-.22,4.05-33.14,50.45-124.19,51.99-162.16,4.31-106.66-36.73-166.64-27.59-189.91Z"/>
  <g>
    <path class="cls-8" d="M253.1,295.66c-63.88,83.36-45.97,126.31-25,205.46-11.28,5.45-6.22,15.75-2.9,17.97,0,0,35.32.12,38.9,0,8.11-2.12,6.96-12.83,5.32-17.42-.97-5.48,24.82-68.7,13.98-137.73l-30.31-68.27Z"/>
    <g class="cls-20">
      <path class="cls-11" d="M252.09,341.57c2.9,51.62,29.7,118.89,23.23,143.58l22.58-86.15-11.83-48.72-33.98-8.71Z"/>
      <path class="cls-14" d="M208.48,390.93c-.97-14.12,38.71-16.98,32.1-2.98-1.37,2.9-18.96-4.92-32.1,14.12v-11.13Z"/>
      <path class="cls-14" d="M215.49,456.34c10.53,9.07,10.16-7.18,15-11.37,4.94-4.28,24.2-3.99,17.5-9.96-8.07-5.9-19.44-5.9-37.22,10.57,0,0,1.21,7.74,4.72,10.77Z"/>
      <path class="cls-14" d="M273.57,494.9c-23.35-24.56-45.01-5.81-44.04-18.27-.48-11.01,35.93-11.49,48.76,6.05l-4.72,12.22Z"/>
      <path class="cls-14" d="M257.88,412.99c-10.57-8.7-27.69-5.55-33.29.12-.74.75-1,1.87-.65,2.86,2.5,7.09,8.94-6.53,33.95-2.99Z"/>
      <path class="cls-14" d="M233.84,520.03c-1.67-4.15-1.65-7.36-.43-9.17.51-.75,1.69-.33,1.66.58-.09,2.83.37,5.61,1.86,8.29.41.74-.28,1.61-1.08,1.33l-1.45-.5c-.25-.09-.46-.28-.56-.53Z"/>
      <path class="cls-14" d="M255.13,519.54c1.65-4.11,1.65-7.29.46-9.1-.51-.78-1.72-.34-1.69.59.08,2.8-.38,5.54-1.85,8.19-.42.75.28,1.63,1.1,1.35l1.41-.49c.26-.09.47-.29.57-.54Z"/>
    </g>
  </g>
  <g>
    <path class="cls-6" d="M365.42,295.66c63.88,83.36,45.97,126.31,25,205.46,11.28,5.45,6.22,15.75,2.9,17.97,0,0-35.32.12-38.9,0-8.11-2.12-6.96-12.83-5.32-17.42.97-5.48-24.82-68.7-13.98-137.73l30.31-68.27Z"/>
    <g class="cls-16">
      <path class="cls-11" d="M366.43,341.57c-2.9,51.62-29.7,118.89-23.23,143.58l-22.58-86.15,11.83-48.72,33.98-8.71Z"/>
      <path class="cls-14" d="M410.04,390.93c.97-14.12-38.71-16.98-32.1-2.98,1.37,2.9,18.96-4.92,32.1,14.12v-11.13Z"/>
      <path class="cls-14" d="M403.02,456.34c-10.53,9.07-10.16-7.18-15-11.37-4.94-4.28-24.2-3.99-17.5-9.96,8.07-5.9,19.44-5.9,37.22,10.57,0,0-1.21,7.74-4.72,10.77Z"/>
      <path class="cls-14" d="M344.95,494.9c23.35-24.56,45.01-5.81,44.04-18.27.48-11.01-35.93-11.49-48.76,6.05l4.72,12.22Z"/>
      <path class="cls-14" d="M360.64,412.99c10.57-8.7,27.69-5.55,33.29.12.74.75,1,1.87.65,2.86-2.5,7.09-8.94-6.53-33.95-2.99Z"/>
      <path class="cls-14" d="M384.67,520.03c1.67-4.15,1.65-7.36.43-9.17-.51-.75-1.69-.33-1.66.58.09,2.83-.37,5.61-1.86,8.29-.41.74.28,1.61,1.08,1.33l1.45-.5c.25-.09.46-.28.56-.53Z"/>
      <path class="cls-14" d="M363.39,519.54c-1.65-4.11-1.65-7.29-.46-9.1.51-.78,1.72-.34,1.69.59-.08,2.8.38,5.54,1.85,8.19.42.75-.28,1.63-1.1,1.35l-1.41-.49c-.26-.09-.47-.29-.57-.54Z"/>
    </g>
  </g>
  <g>
    <path class="cls-7" d="M233.71,330.17c-4.03,33.2-5.7,120.58,14.12,170.95-11.28,5.45-6.22,15.75-2.9,17.97,0,0,35.32.12,38.9,0,8.11-2.12,6.96-12.83,5.32-17.42-.97-5.48,10.99-74.05,2.82-139.19-13.09-104.34-44.43-119.3-44.43-119.3-4.55,10.17-5.62,19.42-13.82,86.99Z"/>
    <g class="cls-19">
      <path class="cls-22" d="M253.57,520.03c-1.67-4.15-1.65-7.36-.43-9.17.51-.75,1.69-.33,1.66.58-.09,2.83.37,5.61,1.86,8.29.41.74-.28,1.61-1.08,1.33l-1.45-.5c-.25-.09-.46-.28-.56-.53Z"/>
      <path class="cls-22" d="M274.85,519.54c1.65-4.11,1.65-7.29.46-9.1-.51-.78-1.72-.34-1.69.59.08,2.8-.38,5.54-1.85,8.19-.42.75.28,1.63,1.1,1.35l1.41-.49c.26-.09.47-.29.57-.54Z"/>
      <path class="cls-22" d="M248.6,481.45c-.31.32-.58.67-.81,1.02-2.05,3.14.96,7.17,4.56,6.14,8.26-2.36,18.32-2.91,27.84-.73,4.07.94,6.72-4.23,3.62-7.04-.01-.01-.02-.02-.03-.03-8.99-8.1-29.46-5.34-35.18.63Z"/>
      <path class="cls-22" d="M242.53,464.21c-5.42,4.51.33,11.15,4.08,9.8,11.68-4.19,21-4.86,36.24-1.08,3.41.85,7.61-6.57,2.08-9.9-14.1-8.51-35.66-4.43-42.4,1.18Z"/>
    </g>
  </g>
  <g>
    <g>
      <g>
        <g>
          <path class="cls-2" d="M362.14,43.82c-4.24-1.7-7.45-5.43-8.28-9.93-1.22-6.61-28.38-12.49-44.6-10.86-16.22-1.63-43.38,4.25-44.6,10.86-.83,4.5-4.04,8.22-8.28,9.93-49.6,19.91-40.9,54.95-87.47,62.36,47.58,45.47,80.16,69.11,140.35,70.19,60.19-1.08,92.77-24.72,140.35-70.19-46.57-7.41-37.87-42.45-87.47-62.36Z"/>
          <g class="cls-17">
            <path class="cls-22" d="M166.64,105.51c8.55,4.39,54.97-12.04,58.56-2.06,3.16,11.79-28.61,15.52-62.75,18.7l4.19-16.64Z"/>
            <path class="cls-22" d="M170.68,128.11c3.39,3.9,51.78-14.01,56.78-3.2,1.03,10.57-33.25,12-54.2,19.68l-2.58-16.48Z"/>
            <path class="cls-22" d="M451.4,105.51c-8.55,4.39-54.97-12.04-58.56-2.06-3.16,11.79,28.61,15.52,62.75,18.7l-4.19-16.64Z"/>
            <path class="cls-22" d="M447.36,128.11c-3.39,3.9-51.78-14.01-56.78-3.2-1.03,10.57,33.25,12,54.2,19.68l2.58-16.48Z"/>
            <path class="cls-11" d="M353.69,176.22c0,24.89-19.9,37.24-44.44,37.24s-44.44-12.35-44.44-37.24,5.89-54.55,44.44-54.55,44.44,29.66,44.44,54.55Z"/>
          </g>
        </g>
        <path class="cls-2" d="M337.88,27.47c-9.5-5.27-15.05-12.8-18.39-21.62.51,4.57,1.11,8.81,1.87,12.46l-4.13-6.17,2.88,11.3-7.02-2.04c-1.36-3.26-2.34-7.49-2.95-12.65-1.62,4.16-2.07,8.51-1.58,13.02l-5.02,1.2c-1.11-5.15.63-11.5,3.71-18.41-6.22,9.02-15.39,16.64-27.42,22.91h24.43l7.35,8.55,17.1-6.78-1.19-1.77h10.38Z"/>
      </g>
      <path class="cls-1" d="M309.35,133.07c.31,3.89.96,7.85,3.06,11.11,4.06,6.55,13,7.49,19.55,4.25,3.36-1.63,6.25-4.4,7.77-8.19-.28,4.2-3.07,8.03-6.63,10.23-13.27,7.88-27.62-2.12-23.76-17.41h0Z"/>
      <g>
        <path class="cls-2" d="M278.02,26.02c-16.07-6.31-29.43-12.35-41.1-17.03S214.78.8,205.27,0c-2.5,38.82,4.84,50.91,15.89,77.64l56.87-51.62Z"/>
        <path class="cls-13" d="M268.8,31.83c-16.47-9.66-47.67-23.11-55.9-21.29-2.02,8.29,1.57,35.21,15.12,55.53,10.28-12.22,22.87-25.14,40.77-34.24Z"/>
      </g>
      <g>
        <path class="cls-2" d="M340.49,26.02c16.07-6.31,29.43-12.35,41.1-17.03s22.14-8.19,31.65-8.99c2.5,38.82-4.84,50.91-15.89,77.64l-56.87-51.62Z"/>
        <path class="cls-13" d="M349.72,31.83c16.47-9.66,47.67-23.11,55.9-21.29,2.02,8.29-1.57,35.21-15.12,55.53-10.28-12.22-22.87-25.14-40.77-34.24Z"/>
      </g>
      <path class="cls-1" d="M309.21,133.06c3.86,15.27-10.48,25.25-23.72,17.38-3.55-2.2-6.34-6.03-6.62-10.22,1.52,3.78,4.41,6.55,7.76,8.18,6.54,3.23,15.47,2.29,19.52-4.25,2.1-3.25,2.74-7.21,3.05-11.1h0Z"/>
      <path class="cls-21" d="M309.21,128.64c-4.67.07-7.62,1.06-9.66,2.54,5.15.77,8.38,3.22,9.66,7.37,1.29-4.15,4.51-6.6,9.66-7.37-2.04-1.47-4.99-2.46-9.66-2.54Z"/>
      <g>
        <circle class="cls-15" cx="289.08" cy="138.96" r=".74"/>
        <circle class="cls-15" cx="296.38" cy="136.13" r=".74"/>
        <circle class="cls-15" cx="302.62" cy="139.82" r=".74"/>
        <circle class="cls-15" cx="296.55" cy="142.64" r=".74"/>
        <circle class="cls-15" cx="329.35" cy="138.96" r=".74"/>
        <circle class="cls-15" cx="322.05" cy="136.13" r=".74"/>
        <circle class="cls-15" cx="315.81" cy="139.82" r=".74"/>
        <circle class="cls-15" cx="321.88" cy="142.64" r=".74"/>
      </g>
      <path class="cls-3" d="M239.35,156.63c14.16-12.46,38.87-16.84,57.18-14.08,0,0,0,.23,0,.23-14.78,1.73-29.98,1.34-44,6.88-4.63,1.76-9.05,4.13-13.03,7.15l-.15-.18h0Z"/>
      <path class="cls-3" d="M230.88,137.21c14.05-4.88,29.35-5.69,43.97-3.05,5.48,1.06,11.06,3.01,16.12,5.33,1.82.92,3.87,1.96,5.62,3,0,0-.12.29-.12.29-5.53-1.25-10.82-2.9-16.23-4.06-5.37-1.26-10.73-2.6-16.21-3.34-6.85-.89-13.84-.9-20.72-.1-4.14.46-8.28,1.3-12.35,2.24,0,0-.08-.3-.08-.3h0Z"/>
      <path class="cls-3" d="M378.92,156.81c-16.62-12.67-37.28-11.88-57.03-14.03,0,0,0-.23,0-.23,14.98-2.17,30.55.1,44.46,6.03,4.59,2.08,8.96,4.72,12.72,8.05l-.15.18h0Z"/>
      <path class="cls-3" d="M387.46,137.51c-17.92-4.37-31.64-3.43-49.27,1.2-5.41,1.16-10.7,2.82-16.23,4.06l-.12-.29c1.74-1.04,3.79-2.08,5.62-3,4.41-1.99,9.31-3.84,14.04-4.87,4.14-.97,8.43-1.37,12.66-1.73,11.29-.89,22.71.72,33.39,4.33,0,0-.08.3-.08.3h0Z"/>
    </g>
    <g>
      <path class="cls-11" d="M294.91,101.77c-2.23,13.65-13.94,22.85-31.66,22.85s-28.72-11.21-28.87-25.05c-.11-10.09,6.07-18.24,10.7-20.65l47.61,8.4s3.71,5.34,2.22,14.44Z"/>
      <ellipse class="cls-1" cx="266.8" cy="103.31" rx="14.66" ry="18"/>
      <circle class="cls-11" cx="255.29" cy="98.07" r="11.11"/>
    </g>
    <g>
      <path class="cls-11" d="M323.75,101.77c2.23,13.65,13.94,22.85,31.66,22.85s28.72-11.21,28.87-25.05c.11-10.09-6.07-18.24-10.7-20.65l-47.61,8.4s-3.71,5.34-2.22,14.44Z"/>
      <ellipse class="cls-1" cx="351.86" cy="103.31" rx="14.66" ry="18"/>
      <circle class="cls-11" cx="341.61" cy="98.07" r="11.11"/>
    </g>
    <ellipse class="cls-1" cx="278.82" cy="63.74" rx="9.2" ry="5.65"/>
    <ellipse class="cls-1" cx="339.69" cy="63.74" rx="9.2" ry="5.65"/>
  </g>
  <g>
    <path class="cls-5" d="M384.8,330.17c4.03,33.2,5.7,120.58-14.12,170.95,11.28,5.45,6.22,15.75,2.9,17.97,0,0-35.32.12-38.9,0-8.11-2.12-6.96-12.83-5.32-17.42.97-5.48-10.99-74.05-2.82-139.19,13.09-104.34,44.43-119.3,44.43-119.3,4.55,10.17,5.62,19.42,13.82,86.99Z"/>
    <g class="cls-18">
      <path class="cls-22" d="M364.95,520.03c1.67-4.15,1.65-7.36.43-9.17-.51-.75-1.69-.33-1.66.58.09,2.83-.37,5.61-1.86,8.29-.41.74.28,1.61,1.08,1.33l1.45-.5c.25-.09.46-.28.56-.53Z"/>
      <path class="cls-22" d="M343.66,519.54c-1.65-4.11-1.65-7.29-.46-9.1.51-.78,1.72-.34,1.69.59-.08,2.8.38,5.54,1.85,8.19.42.75-.28,1.63-1.1,1.35l-1.41-.49c-.26-.09-.47-.29-.57-.54Z"/>
      <path class="cls-22" d="M369.92,481.45c.31.32.58.67.81,1.02,2.05,3.14-.96,7.17-4.56,6.14-8.26-2.36-18.32-2.91-27.84-.73-4.07.94-6.72-4.23-3.62-7.04.01-.01.02-.02.03-.03,8.99-8.1,29.46-5.34,35.18.63Z"/>
      <path class="cls-22" d="M375.98,464.21c5.42,4.51-.33,11.15-4.08,9.8-11.68-4.19-21-4.86-36.24-1.08-3.41.85-7.61-6.57-2.08-9.9,14.1-8.51,35.66-4.43,42.4,1.18Z"/>
    </g>
  </g>
</svg>